{
    "asset" : {
        "generator" : "Khronos glTF Blender I/O v1.6.16",
        "version" : "2.0"
    },
    "scene" : 0,
    "scenes" : [
        {
            "name" : "Scene",
            "nodes" : [
                5,
                6,
                7
            ]
        }
    ],
    "nodes" : [
        {
            "mesh" : 0,
            "name" : "Mesh_0.001"
        },
        {
            "mesh" : 1,
            "name" : "Mesh_1.001"
        },
        {
            "mesh" : 2,
            "name" : "Mesh_2.001"
        },
        {
            "children" : [
                0,
                1,
                2
            ],
            "name" : "model.obj.cleaner.materialmerger.gles"
        },
        {
            "children" : [
                3
            ],
            "name" : "RootNode (model correction matrix)",
            "scale" : [
                0.25963807106018066,
                0.25963807106018066,
                0.25963807106018066
            ]
        },
        {
            "children" : [
                4
            ],
            "name" : "RootNode (gltf orientation matrix)",
            "rotation" : [
                -0.7071068286895752,
                0,
                0,
                0.7071068286895752
            ],
            "scale" : [
                8,
                8,
                8
            ],
            "translation" : [
                1.5638484954833984,
                1.0935838222503662,
                8.573731422424316
            ]
        },
        {
            "name" : "Light",
            "rotation" : [
                -0.5257295966148376,
                -0.8264086842536926,
                0.19710677862167358,
                0.04249678924679756
            ],
            "scale" : [
                1,
                1,
                1.1100000143051147
            ],
            "translation" : [
                0,
                4.7628254890441895,
                -3.385453701019287
            ]
        },
        {
            "name" : "Camera",
            "rotation" : [
                0.483536034822464,
                0.33687159419059753,
                -0.20870360732078552,
                0.7804827094078064
            ],
            "translation" : [
                7.358891487121582,
                4.958309173583984,
                6.925790786743164
            ]
        }
    ],
    "materials" : [
        {
            "doubleSided" : true,
            "emissiveFactor" : [
                1,
                1,
                1
            ],
            "emissiveTexture" : {
                "index" : 0
            },
            "name" : "model_Material_u1_v1.001",
            "pbrMetallicRoughness" : {
                "baseColorTexture" : {
                    "index" : 1
                },
                "metallicFactor" : 0
            }
        }
    ],
    "meshes" : [
        {
            "name" : "Mesh_0.001",
            "primitives" : [
                {
                    "attributes" : {
                        "POSITION" : 0,
                        "NORMAL" : 1,
                        "TEXCOORD_0" : 2
                    },
                    "indices" : 3,
                    "material" : 0
                }
            ]
        },
        {
            "name" : "Mesh_1.001",
            "primitives" : [
                {
                    "attributes" : {
                        "POSITION" : 4,
                        "NORMAL" : 5,
                        "TEXCOORD_0" : 6
                    },
                    "indices" : 7,
                    "material" : 0
                }
            ]
        },
        {
            "name" : "Mesh_2.001",
            "primitives" : [
                {
                    "attributes" : {
                        "POSITION" : 8,
                        "NORMAL" : 9,
                        "TEXCOORD_0" : 10
                    },
                    "indices" : 11,
                    "material" : 0
                }
            ]
        }
    ],
    "textures" : [
        {
            "sampler" : 0,
            "source" : 0
        },
        {
            "sampler" : 0,
            "source" : 0
        }
    ],
    "images" : [
        {
            "mimeType" : "image/jpeg",
            "name" : "model_Material_u1_v1_baseColor",
            "uri" : "model_Material_u1_v1_baseColor.jpg"
        }
    ],
    "accessors" : [
        {
            "bufferView" : 0,
            "componentType" : 5126,
            "count" : 65872,
            "max" : [
                13.922259330749512,
                17.734724044799805,
                14.216910362243652
            ],
            "min" : [
                -9.142822265625,
                -14.412997245788574,
                0.09985078126192093
            ],
            "type" : "VEC3"
        },
        {
            "bufferView" : 1,
            "componentType" : 5126,
            "count" : 65872,
            "type" : "VEC3"
        },
        {
            "bufferView" : 2,
            "componentType" : 5126,
            "count" : 65872,
            "type" : "VEC2"
        },
        {
            "bufferView" : 3,
            "componentType" : 5125,
            "count" : 232356,
            "type" : "SCALAR"
        },
        {
            "bufferView" : 4,
            "componentType" : 5126,
            "count" : 66024,
            "max" : [
                13.548855781555176,
                17.574403762817383,
                14.216910362243652
            ],
            "min" : [
                -8.622936248779297,
                -14.412997245788574,
                0.09985078126192093
            ],
            "type" : "VEC3"
        },
        {
            "bufferView" : 5,
            "componentType" : 5126,
            "count" : 66024,
            "type" : "VEC3"
        },
        {
            "bufferView" : 6,
            "componentType" : 5126,
            "count" : 66024,
            "type" : "VEC2"
        },
        {
            "bufferView" : 7,
            "componentType" : 5125,
            "count" : 153636,
            "type" : "SCALAR"
        },
        {
            "bufferView" : 8,
            "componentType" : 5126,
            "count" : 39941,
            "max" : [
                13.846842765808105,
                17.633590698242188,
                15.057029724121094
            ],
            "min" : [
                -9.107784271240234,
                -14.747137069702148,
                -1.189541220664978
            ],
            "type" : "VEC3"
        },
        {
            "bufferView" : 9,
            "componentType" : 5126,
            "count" : 39941,
            "type" : "VEC3"
        },
        {
            "bufferView" : 10,
            "componentType" : 5126,
            "count" : 39941,
            "type" : "VEC2"
        },
        {
            "bufferView" : 11,
            "componentType" : 5123,
            "count" : 50373,
            "type" : "SCALAR"
        }
    ],
    "bufferViews" : [
        {
            "buffer" : 0,
            "byteLength" : 790464,
            "byteOffset" : 0
        },
        {
            "buffer" : 0,
            "byteLength" : 790464,
            "byteOffset" : 790464
        },
        {
            "buffer" : 0,
            "byteLength" : 526976,
            "byteOffset" : 1580928
        },
        {
            "buffer" : 0,
            "byteLength" : 929424,
            "byteOffset" : 2107904
        },
        {
            "buffer" : 0,
            "byteLength" : 792288,
            "byteOffset" : 3037328
        },
        {
            "buffer" : 0,
            "byteLength" : 792288,
            "byteOffset" : 3829616
        },
        {
            "buffer" : 0,
            "byteLength" : 528192,
            "byteOffset" : 4621904
        },
        {
            "buffer" : 0,
            "byteLength" : 614544,
            "byteOffset" : 5150096
        },
        {
            "buffer" : 0,
            "byteLength" : 479292,
            "byteOffset" : 5764640
        },
        {
            "buffer" : 0,
            "byteLength" : 479292,
            "byteOffset" : 6243932
        },
        {
            "buffer" : 0,
            "byteLength" : 319528,
            "byteOffset" : 6723224
        },
        {
            "buffer" : 0,
            "byteLength" : 100746,
            "byteOffset" : 7042752
        }
    ],
    "samplers" : [
        {
            "magFilter" : 9729,
            "minFilter" : 9987
        }
    ],
    "buffers" : [
        {
            "byteLength" : 7143500,
            "uri" : "untitled.bin"
        }
    ]
}
